<?xml version="1.0" encoding="utf-8"?>
<!-- Generator: Adobe Illustrator 15.1.0, SVG Export Plug-In . SVG Version: 6.00 Build 0)  -->
<!DOCTYPE svg PUBLIC "-//W3C//DTD SVG 1.0//EN" "http://www.w3.org/TR/2001/REC-SVG-20010904/DTD/svg10.dtd">
<svg version="1.0" id="Layer_1" xmlns="http://www.w3.org/2000/svg" xmlns:xlink="http://www.w3.org/1999/xlink" x="0px" y="0px"
	 width="151.921px" height="144px" viewBox="0 0 151.921 144" enable-background="new 0 0 151.921 144" xml:space="preserve">
<line fill="none" stroke="#000000" stroke-miterlimit="10" x1="7.921" y1="18" x2="7.921" y2="9"/>
<line fill="none" stroke="#000000" stroke-miterlimit="10" x1="16.921" y1="54" x2="16.921" y2="63"/>
<line fill="none" stroke="#000000" stroke-miterlimit="10" x1="52.921" y1="90" x2="52.921" y2="99"/>
<line fill="none" stroke="#000000" stroke-miterlimit="10" x1="61.921" y1="99" x2="61.921" y2="90"/>
<line fill="none" stroke="#000000" stroke-miterlimit="10" x1="34.921" y1="108" x2="25.921" y2="108"/>
<line fill="none" stroke="#000000" stroke-miterlimit="10" x1="79.921" y1="72" x2="70.921" y2="72"/>
<line fill="none" stroke="#000000" stroke-miterlimit="10" x1="115.921" y1="36" x2="115.921" y2="27"/>
<line fill="none" stroke="#000000" stroke-miterlimit="10" x1="142.921" y1="99" x2="142.921" y2="90"/>
<line fill="none" stroke="#ED1C24" stroke-miterlimit="10" x1="7.921" y1="18" x2="43.921" y2="18"/>
<line fill="none" stroke="#ED1C24" stroke-miterlimit="10" x1="43.921" y1="18" x2="43.921" y2="36"/>
<line fill="none" stroke="#ED1C24" stroke-miterlimit="10" x1="43.921" y1="36" x2="7.921" y2="36"/>
<line fill="none" stroke="#ED1C24" stroke-miterlimit="10" x1="7.921" y1="36" x2="7.921" y2="63"/>
<line fill="none" stroke="#ED1C24" stroke-miterlimit="10" x1="7.921" y1="63" x2="43.921" y2="63"/>
<line fill="none" stroke="#ED1C24" stroke-miterlimit="10" x1="52.921" y1="18" x2="52.921" y2="63"/>
<line fill="none" stroke="#ED1C24" stroke-miterlimit="10" x1="52.921" y1="63" x2="79.921" y2="63"/>
<line fill="none" stroke="#ED1C24" stroke-miterlimit="10" x1="79.921" y1="63" x2="79.921" y2="18"/>
<line fill="none" stroke="#ED1C24" stroke-miterlimit="10" x1="79.921" y1="18" x2="52.921" y2="18"/>
<line fill="none" stroke="#ED1C24" stroke-miterlimit="10" x1="88.921" y1="18" x2="88.921" y2="63"/>
<line fill="none" stroke="#ED1C24" stroke-miterlimit="10" x1="97.921" y1="18" x2="97.921" y2="45"/>
<line fill="none" stroke="#ED1C24" stroke-miterlimit="10" x1="97.921" y1="45" x2="133.921" y2="45"/>
<line fill="none" stroke="#ED1C24" stroke-miterlimit="10" x1="124.921" y1="18" x2="124.921" y2="63"/>
<line fill="none" stroke="#000000" stroke-miterlimit="10" x1="7.921" y1="9" x2="52.921" y2="9"/>
<line fill="none" stroke="#000000" stroke-miterlimit="10" x1="52.921" y1="9" x2="52.921" y2="18"/>
<line fill="none" stroke="#000000" stroke-miterlimit="10" x1="43.921" y1="27" x2="16.921" y2="27"/>
<line fill="none" stroke="#000000" stroke-miterlimit="10" x1="7.921" y1="18" x2="7.921" y2="27"/>
<line fill="none" stroke="#000000" stroke-miterlimit="10" x1="16.921" y1="54" x2="43.921" y2="54"/>
<line fill="none" stroke="#000000" stroke-miterlimit="10" x1="43.921" y1="54" x2="43.921" y2="45"/>
<line fill="none" stroke="#000000" stroke-miterlimit="10" x1="16.921" y1="54" x2="16.921" y2="45"/>
<line fill="none" stroke="#000000" stroke-miterlimit="10" x1="16.921" y1="45" x2="34.921" y2="45"/>
<line fill="none" stroke="#000000" stroke-miterlimit="10" x1="52.921" y1="27" x2="70.921" y2="27"/>
<line fill="none" stroke="#000000" stroke-miterlimit="10" x1="70.921" y1="27" x2="70.921" y2="45"/>
<line fill="none" stroke="#000000" stroke-miterlimit="10" x1="70.921" y1="45" x2="61.921" y2="45"/>
<line fill="none" stroke="#000000" stroke-miterlimit="10" x1="70.921" y1="45" x2="70.921" y2="54"/>
<line fill="none" stroke="#000000" stroke-miterlimit="10" x1="70.921" y1="54" x2="61.921" y2="54"/>
<line fill="none" stroke="#000000" stroke-miterlimit="10" x1="61.921" y1="45" x2="61.921" y2="36"/>
<line fill="none" stroke="#000000" stroke-miterlimit="10" x1="7.921" y1="63" x2="7.921" y2="72"/>
<line fill="none" stroke="#000000" stroke-miterlimit="10" x1="7.921" y1="72" x2="25.921" y2="72"/>
<line fill="none" stroke="#000000" stroke-miterlimit="10" x1="25.921" y1="72" x2="25.921" y2="90"/>
<line fill="none" stroke="#000000" stroke-miterlimit="10" x1="25.921" y1="90" x2="16.921" y2="90"/>
<line fill="none" stroke="#000000" stroke-miterlimit="10" x1="16.921" y1="90" x2="16.921" y2="108"/>
<line fill="none" stroke="#000000" stroke-miterlimit="10" x1="16.921" y1="108" x2="25.921" y2="108"/>
<line fill="none" stroke="#000000" stroke-miterlimit="10" x1="34.921" y1="108" x2="79.921" y2="108"/>
<line fill="none" stroke="#000000" stroke-miterlimit="10" x1="79.921" y1="108" x2="79.921" y2="90"/>
<line fill="none" stroke="#000000" stroke-miterlimit="10" x1="79.921" y1="90" x2="70.921" y2="90"/>
<line fill="none" stroke="#000000" stroke-miterlimit="10" x1="70.921" y1="90" x2="70.921" y2="81"/>
<line fill="none" stroke="#000000" stroke-miterlimit="10" x1="70.921" y1="81" x2="52.921" y2="81"/>
<line fill="none" stroke="#000000" stroke-miterlimit="10" x1="52.921" y1="81" x2="52.921" y2="72"/>
<line fill="none" stroke="#000000" stroke-miterlimit="10" x1="52.921" y1="72" x2="43.921" y2="72"/>
<line fill="none" stroke="#000000" stroke-miterlimit="10" x1="43.921" y1="72" x2="43.921" y2="90"/>
<line fill="none" stroke="#000000" stroke-miterlimit="10" x1="43.921" y1="90" x2="52.921" y2="90"/>
<line fill="none" stroke="#000000" stroke-miterlimit="10" x1="52.921" y1="99" x2="61.921" y2="99"/>
<line fill="none" stroke="#000000" stroke-miterlimit="10" x1="61.921" y1="99" x2="70.921" y2="99"/>
<line fill="none" stroke="#000000" stroke-miterlimit="10" x1="43.921" y1="90" x2="34.921" y2="90"/>
<line fill="none" stroke="#000000" stroke-miterlimit="10" x1="34.921" y1="90" x2="34.921" y2="99"/>
<line fill="none" stroke="#000000" stroke-miterlimit="10" x1="34.921" y1="99" x2="25.921" y2="99"/>
<line fill="none" stroke="#000000" stroke-miterlimit="10" x1="34.921" y1="90" x2="34.921" y2="81"/>
<line fill="none" stroke="#000000" stroke-miterlimit="10" x1="34.921" y1="81" x2="34.921" y2="72"/>
<line fill="none" stroke="#000000" stroke-miterlimit="10" x1="61.921" y1="72" x2="61.921" y2="81"/>
<line fill="none" stroke="#000000" stroke-miterlimit="10" x1="70.921" y1="18" x2="70.921" y2="9"/>
<line fill="none" stroke="#000000" stroke-miterlimit="10" x1="70.921" y1="9" x2="61.921" y2="9"/>
<line fill="none" stroke="#000000" stroke-miterlimit="10" x1="70.921" y1="9" x2="88.921" y2="9"/>
<line fill="none" stroke="#000000" stroke-miterlimit="10" x1="88.921" y1="9" x2="88.921" y2="18"/>
<line fill="none" stroke="#000000" stroke-miterlimit="10" x1="88.921" y1="63" x2="88.921" y2="72"/>
<line fill="none" stroke="#000000" stroke-miterlimit="10" x1="88.921" y1="72" x2="79.921" y2="72"/>
<line fill="none" stroke="#000000" stroke-miterlimit="10" x1="79.921" y1="72" x2="79.921" y2="81"/>
<line fill="none" stroke="#000000" stroke-miterlimit="10" x1="79.921" y1="81" x2="124.921" y2="81"/>
<line fill="none" stroke="#000000" stroke-miterlimit="10" x1="124.921" y1="81" x2="124.921" y2="99"/>
<line fill="none" stroke="#000000" stroke-miterlimit="10" x1="124.921" y1="99" x2="115.921" y2="99"/>
<line fill="none" stroke="#000000" stroke-miterlimit="10" x1="115.921" y1="99" x2="115.921" y2="117"/>
<line fill="none" stroke="#000000" stroke-miterlimit="10" x1="115.921" y1="117" x2="106.921" y2="117"/>
<line fill="none" stroke="#000000" stroke-miterlimit="10" x1="106.921" y1="117" x2="106.921" y2="108"/>
<line fill="none" stroke="#000000" stroke-miterlimit="10" x1="106.921" y1="108" x2="88.921" y2="108"/>
<line fill="none" stroke="#000000" stroke-miterlimit="10" x1="88.921" y1="108" x2="88.921" y2="135"/>
<line fill="none" stroke="#000000" stroke-miterlimit="10" x1="88.921" y1="135" x2="106.921" y2="135"/>
<line fill="none" stroke="#000000" stroke-miterlimit="10" x1="106.921" y1="135" x2="106.921" y2="126"/>
<line fill="none" stroke="#000000" stroke-miterlimit="10" x1="106.921" y1="126" x2="133.921" y2="126"/>
<line fill="none" stroke="#000000" stroke-miterlimit="10" x1="133.921" y1="126" x2="133.921" y2="117"/>
<line fill="none" stroke="#000000" stroke-miterlimit="10" x1="133.921" y1="117" x2="142.921" y2="117"/>
<line fill="none" stroke="#000000" stroke-miterlimit="10" x1="142.921" y1="117" x2="142.921" y2="99"/>
<line fill="none" stroke="#000000" stroke-miterlimit="10" x1="142.921" y1="90" x2="133.921" y2="90"/>
<line fill="none" stroke="#000000" stroke-miterlimit="10" x1="133.921" y1="90" x2="133.921" y2="108"/>
<line fill="none" stroke="#000000" stroke-miterlimit="10" x1="133.921" y1="108" x2="124.921" y2="108"/>
<line fill="none" stroke="#000000" stroke-miterlimit="10" x1="124.921" y1="108" x2="124.921" y2="117"/>
<line fill="none" stroke="#000000" stroke-miterlimit="10" x1="106.921" y1="126" x2="97.921" y2="126"/>
<line fill="none" stroke="#000000" stroke-miterlimit="10" x1="97.921" y1="126" x2="97.921" y2="117"/>
<line fill="none" stroke="#000000" stroke-miterlimit="10" x1="142.921" y1="90" x2="142.921" y2="63"/>
<line fill="none" stroke="#000000" stroke-miterlimit="10" x1="142.921" y1="63" x2="133.921" y2="63"/>
<line fill="none" stroke="#000000" stroke-miterlimit="10" x1="133.921" y1="63" x2="133.921" y2="72"/>
<line fill="none" stroke="#000000" stroke-miterlimit="10" x1="133.921" y1="72" x2="124.921" y2="72"/>
<line fill="none" stroke="#000000" stroke-miterlimit="10" x1="88.921" y1="45" x2="97.921" y2="45"/>
<line fill="none" stroke="#000000" stroke-miterlimit="10" x1="124.921" y1="63" x2="115.921" y2="63"/>
<line fill="none" stroke="#000000" stroke-miterlimit="10" x1="115.921" y1="63" x2="115.921" y2="54"/>
<line fill="none" stroke="#000000" stroke-miterlimit="10" x1="115.921" y1="54" x2="106.921" y2="54"/>
<line fill="none" stroke="#000000" stroke-miterlimit="10" x1="106.921" y1="54" x2="106.921" y2="72"/>
<line fill="none" stroke="#000000" stroke-miterlimit="10" x1="106.921" y1="72" x2="115.921" y2="72"/>
<line fill="none" stroke="#000000" stroke-miterlimit="10" x1="106.921" y1="63" x2="97.921" y2="63"/>
<line fill="none" stroke="#000000" stroke-miterlimit="10" x1="97.921" y1="63" x2="97.921" y2="54"/>
<line fill="none" stroke="#000000" stroke-miterlimit="10" x1="97.921" y1="63" x2="97.921" y2="72"/>
<line fill="none" stroke="#000000" stroke-miterlimit="10" x1="133.921" y1="45" x2="142.921" y2="45"/>
<line fill="none" stroke="#000000" stroke-miterlimit="10" x1="142.921" y1="45" x2="142.921" y2="9"/>
<line fill="none" stroke="#000000" stroke-miterlimit="10" x1="142.921" y1="9" x2="133.921" y2="9"/>
<line fill="none" stroke="#000000" stroke-miterlimit="10" x1="133.921" y1="9" x2="133.921" y2="27"/>
<line fill="none" stroke="#000000" stroke-miterlimit="10" x1="142.921" y1="36" x2="133.921" y2="36"/>
<line fill="none" stroke="#000000" stroke-miterlimit="10" x1="115.921" y1="27" x2="106.921" y2="27"/>
<line fill="none" stroke="#000000" stroke-miterlimit="10" x1="106.921" y1="27" x2="106.921" y2="18"/>
<line fill="none" stroke="#000000" stroke-miterlimit="10" x1="106.921" y1="18" x2="97.921" y2="18"/>
<line fill="none" stroke="#000000" stroke-miterlimit="10" x1="106.921" y1="36" x2="115.921" y2="36"/>
<line fill="none" stroke="#000000" stroke-miterlimit="10" x1="115.921" y1="27" x2="115.921" y2="9"/>
<line fill="none" stroke="#000000" stroke-miterlimit="10" x1="115.921" y1="9" x2="124.921" y2="9"/>
<line fill="none" stroke="#000000" stroke-miterlimit="10" x1="115.921" y1="9" x2="97.921" y2="9"/>
<line fill="none" stroke="#000000" stroke-miterlimit="10" x1="97.921" y1="108" x2="97.921" y2="90"/>
<line fill="none" stroke="#000000" stroke-miterlimit="10" x1="97.921" y1="90" x2="106.921" y2="90"/>
<line fill="none" stroke="#000000" stroke-miterlimit="10" x1="106.921" y1="90" x2="106.921" y2="99"/>
<line fill="none" stroke="#000000" stroke-miterlimit="10" x1="97.921" y1="99" x2="88.921" y2="99"/>
<line fill="none" stroke="#000000" stroke-miterlimit="10" x1="88.921" y1="99" x2="88.921" y2="90"/>
<line fill="none" stroke="#000000" stroke-miterlimit="10" x1="142.921" y1="117" x2="142.921" y2="135"/>
<line fill="none" stroke="#000000" stroke-miterlimit="10" x1="142.921" y1="135" x2="133.921" y2="135"/>
<line fill="none" stroke="#000000" stroke-miterlimit="10" x1="124.921" y1="126" x2="124.921" y2="135"/>
<line fill="none" stroke="#000000" stroke-miterlimit="10" x1="115.921" y1="135" x2="124.921" y2="135"/>
<line fill="none" stroke="#000000" stroke-miterlimit="10" x1="16.921" y1="90" x2="7.921" y2="90"/>
<line fill="none" stroke="#000000" stroke-miterlimit="10" x1="7.921" y1="90" x2="7.921" y2="81"/>
<line fill="none" stroke="#000000" stroke-miterlimit="10" x1="7.921" y1="81" x2="16.921" y2="81"/>
<line fill="none" stroke="#000000" stroke-miterlimit="10" x1="25.921" y1="108" x2="25.921" y2="126"/>
<line fill="none" stroke="#000000" stroke-miterlimit="10" x1="25.921" y1="126" x2="52.921" y2="126"/>
<line fill="none" stroke="#000000" stroke-miterlimit="10" x1="52.921" y1="126" x2="52.921" y2="135"/>
<line fill="none" stroke="#000000" stroke-miterlimit="10" x1="52.921" y1="135" x2="34.921" y2="135"/>
<line fill="none" stroke="#000000" stroke-miterlimit="10" x1="52.921" y1="135" x2="70.921" y2="135"/>
<line fill="none" stroke="#000000" stroke-miterlimit="10" x1="61.921" y1="135" x2="61.921" y2="117"/>
<line fill="none" stroke="#000000" stroke-miterlimit="10" x1="61.921" y1="117" x2="79.921" y2="117"/>
<line fill="none" stroke="#000000" stroke-miterlimit="10" x1="79.921" y1="117" x2="79.921" y2="126"/>
<line fill="none" stroke="#000000" stroke-miterlimit="10" x1="70.921" y1="126" x2="79.921" y2="126"/>
<line fill="none" stroke="#000000" stroke-miterlimit="10" x1="79.921" y1="126" x2="79.921" y2="135"/>
<line fill="none" stroke="#000000" stroke-miterlimit="10" x1="61.921" y1="117" x2="43.921" y2="117"/>
<line fill="none" stroke="#000000" stroke-miterlimit="10" x1="34.921" y1="126" x2="34.921" y2="117"/>
<line fill="none" stroke="#000000" stroke-miterlimit="10" x1="34.921" y1="135" x2="16.921" y2="135"/>
<line fill="none" stroke="#000000" stroke-miterlimit="10" x1="16.921" y1="135" x2="7.921" y2="135"/>
<line fill="none" stroke="#000000" stroke-miterlimit="10" x1="7.921" y1="135" x2="7.921" y2="126"/>
<line fill="none" stroke="#000000" stroke-miterlimit="10" x1="7.921" y1="126" x2="16.921" y2="126"/>
<line fill="none" stroke="#000000" stroke-miterlimit="10" x1="16.921" y1="126" x2="16.921" y2="117"/>
<line fill="none" stroke="#000000" stroke-miterlimit="10" x1="16.921" y1="117" x2="7.921" y2="117"/>
<line fill="none" stroke="#000000" stroke-miterlimit="10" x1="7.921" y1="117" x2="7.921" y2="99"/>
<line fill="none" stroke="#000000" stroke-miterlimit="10" x1="142.921" y1="45" x2="142.921" y2="54"/>
<line fill="none" stroke="#000000" stroke-miterlimit="10" x1="142.921" y1="54" x2="133.921" y2="54"/>
</svg>
