<?xml version="1.0" encoding="utf-8"?>
<!-- Generator: Adobe Illustrator 15.1.0, SVG Export Plug-In . SVG Version: 6.00 Build 0)  -->
<!DOCTYPE svg PUBLIC "-//W3C//DTD SVG 1.0//EN" "http://www.w3.org/TR/2001/REC-SVG-20010904/DTD/svg10.dtd">
<svg version="1.0" id="Layer_1" xmlns="http://www.w3.org/2000/svg" xmlns:xlink="http://www.w3.org/1999/xlink" x="0px" y="0px"
	 width="54px" height="54px" viewBox="0 0 54 54" enable-background="new 0 0 54 54" xml:space="preserve">
<line fill="none" stroke="#000000" stroke-width="5" stroke-miterlimit="10" x1="9" y1="9" x2="9" y2="36"/>
<line fill="none" stroke="#000000" stroke-width="5" stroke-miterlimit="10" x1="9" y1="36" x2="18" y2="36"/>
<line fill="none" stroke="#000000" stroke-width="5" stroke-miterlimit="10" x1="18" y1="36" x2="18" y2="27"/>
<line fill="none" stroke="#000000" stroke-width="5" stroke-miterlimit="10" x1="18" y1="27" x2="36" y2="27"/>
<line fill="none" stroke="#000000" stroke-width="5" stroke-miterlimit="10" x1="36" y1="27" x2="36" y2="36"/>
<line fill="none" stroke="#000000" stroke-width="5" stroke-miterlimit="10" x1="36" y1="36" x2="36" y2="45"/>
<line fill="none" stroke="#000000" stroke-width="5" stroke-miterlimit="10" x1="36" y1="45" x2="18" y2="45"/>
<line fill="none" stroke="#000000" stroke-width="5" stroke-miterlimit="10" x1="18" y1="45" x2="9" y2="45"/>
<line fill="none" stroke="#000000" stroke-width="5" stroke-miterlimit="10" x1="36" y1="45" x2="45" y2="45"/>
<line fill="none" stroke="#000000" stroke-width="5" stroke-miterlimit="10" x1="45" y1="45" x2="45" y2="18"/>
<line fill="none" stroke="#000000" stroke-width="5" stroke-miterlimit="10" x1="45" y1="18" x2="36" y2="18"/>
<line fill="none" stroke="#000000" stroke-width="5" stroke-miterlimit="10" x1="36" y1="18" x2="36" y2="9"/>
<line fill="none" stroke="#000000" stroke-width="5" stroke-miterlimit="10" x1="36" y1="9" x2="45" y2="9"/>
<line fill="none" stroke="#000000" stroke-width="5" stroke-miterlimit="10" x1="36" y1="18" x2="27" y2="18"/>
<line fill="none" stroke="#000000" stroke-width="5" stroke-miterlimit="10" x1="27" y1="18" x2="27" y2="9"/>
<line fill="none" stroke="#000000" stroke-width="5" stroke-miterlimit="10" x1="27" y1="9" x2="18" y2="9"/>
<line fill="none" stroke="#000000" stroke-width="5" stroke-miterlimit="10" x1="18" y1="9" x2="18" y2="18"/>
<line fill="none" stroke="#000000" stroke-width="5" stroke-miterlimit="10" x1="18" y1="36" x2="27" y2="36"/>
</svg>
