<?xml version="1.0" encoding="utf-8"?>
<!-- Generator: Adobe Illustrator 15.1.0, SVG Export Plug-In . SVG Version: 6.00 Build 0)  -->
<!DOCTYPE svg PUBLIC "-//W3C//DTD SVG 1.1//EN" "http://www.w3.org/Graphics/SVG/1.1/DTD/svg11.dtd">
<svg version="1.1" xmlns="http://www.w3.org/2000/svg" xmlns:xlink="http://www.w3.org/1999/xlink" x="0px" y="0px"
	 width="196.027px" height="196.027px" viewBox="0 0 196.027 196.027" enable-background="new 0 0 196.027 196.027"
	 xml:space="preserve">
<g id="Layer_1" display="none">
</g>
<g id="Layer_2">
	<line fill="none" stroke="#000000" stroke-width="11" stroke-miterlimit="10" x1="23" y1="-119.486" x2="23" y2="5.5"/>
	<line fill="none" stroke="#000000" stroke-width="11" stroke-miterlimit="10" x1="23" y1="5.5" x2="171.5" y2="5.5"/>
	<line fill="none" stroke="#000000" stroke-width="11" stroke-miterlimit="10" x1="171.5" y1="5.5" x2="171.5" y2="116.875"/>
	<line fill="none" stroke="#000000" stroke-width="11" stroke-miterlimit="10" x1="171.5" y1="116.875" x2="134.375" y2="116.875"/>
	<line fill="none" stroke="#000000" stroke-width="11" stroke-miterlimit="10" x1="134.375" y1="116.875" x2="134.375" y2="154"/>
	<line fill="none" stroke="#000000" stroke-width="11" stroke-miterlimit="10" x1="134.375" y1="154" x2="171.5" y2="154"/>
	<line fill="none" stroke="#000000" stroke-width="11" stroke-miterlimit="10" x1="171.5" y1="154" x2="171.5" y2="191.125"/>
	<line fill="none" stroke="#000000" stroke-width="11" stroke-miterlimit="10" x1="171.5" y1="191.125" x2="23" y2="191.125"/>
	<line fill="none" stroke="#000000" stroke-width="11" stroke-miterlimit="10" x1="23" y1="191.125" x2="23" y2="116.875"/>
	<line fill="none" stroke="#000000" stroke-width="11" stroke-miterlimit="10" x1="23" y1="116.875" x2="60.125" y2="116.875"/>
	<line fill="none" stroke="#000000" stroke-width="11" stroke-miterlimit="10" x1="60.125" y1="116.875" x2="60.125" y2="158.514"/>
	<line fill="none" stroke="#000000" stroke-width="11" stroke-miterlimit="10" x1="60.125" y1="158.514" x2="97.25" y2="158.514"/>
	<line fill="none" stroke="#000000" stroke-width="11" stroke-miterlimit="10" x1="97.25" y1="158.514" x2="97.25" y2="79.75"/>
	<line fill="none" stroke="#000000" stroke-width="11" stroke-miterlimit="10" x1="97.25" y1="79.75" x2="134.375" y2="79.75"/>
	<line fill="none" stroke="#000000" stroke-width="11" stroke-miterlimit="10" x1="134.375" y1="79.75" x2="134.375" y2="42.625"/>
	<line fill="none" stroke="#000000" stroke-width="11" stroke-miterlimit="10" x1="134.375" y1="42.625" x2="60.125" y2="42.625"/>
	<line fill="none" stroke="#000000" stroke-width="11" stroke-miterlimit="10" x1="60.125" y1="42.625" x2="60.125" y2="79.75"/>
	<line fill="none" stroke="#000000" stroke-width="11" stroke-miterlimit="10" x1="60.125" y1="79.75" x2="23" y2="79.75"/>
	<line fill="none" stroke="#000000" stroke-width="11" stroke-miterlimit="10" x1="23" y1="79.75" x2="23" y2="42.625"/>
	<line fill="none" stroke="#000000" stroke-width="11" stroke-miterlimit="10" x1="23" y1="42.625" x2="-125.5" y2="42.625"/>
</g>
</svg>
