<?xml version="1.0" encoding="utf-8"?>
<!-- Generator: Adobe Illustrator 15.1.0, SVG Export Plug-In . SVG Version: 6.00 Build 0)  -->
<!DOCTYPE svg PUBLIC "-//W3C//DTD SVG 1.0//EN" "http://www.w3.org/TR/2001/REC-SVG-20010904/DTD/svg10.dtd">
<svg version="1.0" id="Layer_1" xmlns="http://www.w3.org/2000/svg" xmlns:xlink="http://www.w3.org/1999/xlink" x="0px" y="0px"
	 width="612px" height="792px" viewBox="0 0 612 792" enable-background="new 0 0 612 792" xml:space="preserve">
<line fill="none" stroke="#000000" stroke-miterlimit="10" x1="109" y1="82" x2="191" y2="82"/>
<line fill="none" stroke="#000000" stroke-miterlimit="10" x1="191" y1="82" x2="191" y2="190"/>
<line fill="none" stroke="#000000" stroke-miterlimit="10" x1="191" y1="190" x2="109" y2="190"/>
<line fill="none" stroke="#000000" stroke-miterlimit="10" x1="109" y1="190" x2="109" y2="82"/>
<line fill="none" stroke="#000000" stroke-miterlimit="10" x1="130" y1="190" x2="130" y2="111"/>
<line fill="none" stroke="#000000" stroke-miterlimit="10" x1="130" y1="111" x2="170" y2="111"/>
<line fill="none" stroke="#000000" stroke-miterlimit="10" x1="170" y1="111" x2="170" y2="190"/>
<line fill="none" stroke="#000000" stroke-miterlimit="10" x1="347" y1="82" x2="429" y2="82"/>
<line fill="none" stroke="#000000" stroke-miterlimit="10" x1="429" y1="82" x2="429" y2="190"/>
<line fill="none" stroke="#000000" stroke-miterlimit="10" x1="429" y1="190" x2="347" y2="190"/>
<line fill="none" stroke="#000000" stroke-miterlimit="10" x1="347" y1="190" x2="347" y2="82"/>
<line fill="none" stroke="#000000" stroke-miterlimit="10" x1="368" y1="190" x2="368" y2="111"/>
<line fill="none" stroke="#000000" stroke-miterlimit="10" x1="368" y1="111" x2="408" y2="111"/>
<line fill="none" stroke="#000000" stroke-miterlimit="10" x1="408" y1="111" x2="408" y2="190"/>
</svg>
