<?xml version="1.0" encoding="utf-8"?>
<!-- Generator: Adobe Illustrator 15.1.0, SVG Export Plug-In . SVG Version: 6.00 Build 0)  -->
<!DOCTYPE svg PUBLIC "-//W3C//DTD SVG 1.0//EN" "http://www.w3.org/TR/2001/REC-SVG-20010904/DTD/svg10.dtd">
<svg version="1.0" id="Layer_1" xmlns="http://www.w3.org/2000/svg" xmlns:xlink="http://www.w3.org/1999/xlink" x="0px" y="0px"
	 width="612px" height="792px" viewBox="0 0 612 792" enable-background="new 0 0 612 792" xml:space="preserve">
<g>
	<line fill="none" stroke="#000000" stroke-miterlimit="10" x1="36" y1="35" x2="36" y2="175"/>
	<line fill="none" stroke="#000000" stroke-miterlimit="10" x1="135" y1="175" x2="63" y2="175"/>
	<line fill="none" stroke="#000000" stroke-miterlimit="10" x1="36" y1="175" x2="63" y2="175"/>
	<line fill="none" stroke="#000000" stroke-miterlimit="10" x1="135" y1="35" x2="135" y2="175"/>
	<line fill="none" stroke="#000000" stroke-miterlimit="10" x1="184" y1="35" x2="184" y2="175"/>
	<line fill="none" stroke="#000000" stroke-miterlimit="10" x1="237" y1="35" x2="295" y2="35"/>
	<line fill="none" stroke="#000000" stroke-miterlimit="10" x1="237" y1="35" x2="210" y2="35"/>
	<line fill="none" stroke="#000000" stroke-miterlimit="10" x1="210" y1="35" x2="210" y2="91"/>
	<line fill="none" stroke="#000000" stroke-miterlimit="10" x1="268" y1="91" x2="295" y2="91"/>
	<line fill="none" stroke="#000000" stroke-miterlimit="10" x1="237" y1="91" x2="210" y2="91"/>
	<line fill="none" stroke="#000000" stroke-miterlimit="10" x1="268" y1="91" x2="237" y2="91"/>
	<line fill="none" stroke="#000000" stroke-miterlimit="10" x1="295" y1="175" x2="295" y2="91"/>
	<line fill="none" stroke="#000000" stroke-miterlimit="10" x1="210" y1="175" x2="268" y2="175"/>
	<line fill="none" stroke="#000000" stroke-miterlimit="10" x1="295" y1="175" x2="268" y2="175"/>
	<line fill="none" stroke="#000000" stroke-miterlimit="10" x1="431" y1="35" x2="389" y2="35"/>
	<line fill="none" stroke="#000000" stroke-miterlimit="10" x1="362" y1="35" x2="389" y2="35"/>
	<line fill="none" stroke="#000000" stroke-miterlimit="10" x1="362" y1="35" x2="319" y2="35"/>
	<line fill="none" stroke="#000000" stroke-miterlimit="10" x1="389" y1="175" x2="389" y2="35"/>
	<line fill="none" stroke="#000000" stroke-miterlimit="10" x1="63" y1="35" x2="36" y2="35"/>
	<line fill="none" stroke="#000000" stroke-miterlimit="10" x1="63" y1="35" x2="63" y2="175"/>
	<line fill="none" stroke="#000000" stroke-miterlimit="10" x1="157" y1="175" x2="184" y2="175"/>
	<line fill="none" stroke="#000000" stroke-miterlimit="10" x1="184" y1="35" x2="157" y2="35"/>
	<line fill="none" stroke="#000000" stroke-miterlimit="10" x1="389" y1="175" x2="362" y2="175"/>
	<line fill="none" stroke="#000000" stroke-miterlimit="10" x1="268" y1="91" x2="268" y2="175"/>
	<line fill="none" stroke="#000000" stroke-miterlimit="10" x1="237" y1="35" x2="237" y2="91"/>
	<line fill="none" stroke="#000000" stroke-miterlimit="10" x1="362" y1="35" x2="362" y2="175"/>
	<line fill="none" stroke="#000000" stroke-miterlimit="10" x1="157" y1="35" x2="157" y2="175"/>
</g>
</svg>
