<?xml version="1.0" encoding="utf-8"?>
<!-- Generator: Adobe Illustrator 15.1.0, SVG Export Plug-In . SVG Version: 6.00 Build 0)  -->
<!DOCTYPE svg PUBLIC "-//W3C//DTD SVG 1.0//EN" "http://www.w3.org/TR/2001/REC-SVG-20010904/DTD/svg10.dtd">
<svg version="1.0" id="Layer_1" xmlns="http://www.w3.org/2000/svg" xmlns:xlink="http://www.w3.org/1999/xlink" x="0px" y="0px"
	 width="612px" height="792px" viewBox="0 0 612 792" enable-background="new 0 0 612 792" xml:space="preserve">
<path fill="none" stroke="#000000" stroke-width="0" stroke-linecap="round" stroke-linejoin="round" d="M180.3,61.85v82.8c0.099,3.101-0.225,6.176-0.975,9.225c-0.75,3.052-1.976,5.751-3.675,8.1c-1.702,2.351-3.952,4.251-6.75,5.7c-2.801,1.451-6.15,2.175-10.05,2.175H77.4c-4.702,0-8.5-0.75-11.4-2.25c-2.901-1.5-5.151-3.45-6.75-5.85c-1.601-2.4-2.726-5.1-3.375-8.1c-0.651-3-1.026-6-1.125-9v-82.8"/>
<path fill="none" stroke="#000000" stroke-width="0" stroke-linecap="round" stroke-linejoin="round" d="M383.847,86.45v-9.3c0-2.798-0.651-5.175-1.95-7.125c-1.301-1.95-3.101-3.525-5.399-4.725c-2.302-1.2-5.051-2.048-8.25-2.55c-3.202-0.499-6.75-0.75-10.65-0.75h-50.399c-6.701,0-12.375,0.375-17.025,1.125s-8.4,1.95-11.25,3.6s-4.927,3.75-6.225,6.3c-1.301,2.55-1.95,5.576-1.95,9.075v16.2c0,4.8,1.099,8.625,3.3,11.475c2.198,2.85,5.899,4.327,11.1,4.425l82.95,2.55c2.198,0.101,4.5,0.525,6.9,1.275c2.399,0.75,4.575,1.852,6.524,3.3c1.95,1.451,3.574,3.176,4.875,5.175c1.299,2.001,1.95,4.301,1.95,6.9v17.25c0,3-1.001,5.677-3,8.025c-2.001,2.351-4.525,4.376-7.575,6.075c-3.051,1.702-6.449,3-10.199,3.9s-7.327,1.35-10.726,1.35h-66.149c-4.801,0-8.827-0.398-12.075-1.2c-3.251-0.799-5.901-1.924-7.95-3.375c-2.051-1.448-3.502-3.199-4.35-5.25c-0.852-2.048-1.275-4.275-1.275-6.675v-9.45"/>
<line fill="none" stroke="#000000" stroke-width="0" stroke-linecap="round" stroke-linejoin="round" x1="543.597" y1="62" x2="482.097" y2="62"/>
<line fill="none" stroke="#000000" stroke-width="0" stroke-linecap="round" stroke-linejoin="round" x1="482.097" y1="62" x2="482.097" y2="170"/>
<line fill="none" stroke="#000000" stroke-width="0" stroke-linecap="round" stroke-linejoin="round" x1="482.097" y1="62" x2="420.446" y2="62"/>
<line fill="none" stroke="#000000" stroke-width="0" stroke-linecap="round" stroke-linejoin="round" x1="223" y1="62" x2="223" y2="170"/>
</svg>
