<?xml version="1.0" encoding="utf-8"?>
<!-- Generator: Adobe Illustrator 15.1.0, SVG Export Plug-In . SVG Version: 6.00 Build 0)  -->
<!DOCTYPE svg PUBLIC "-//W3C//DTD SVG 1.1//EN" "http://www.w3.org/Graphics/SVG/1.1/DTD/svg11.dtd">
<svg version="1.1" id="Layer_1" xmlns="http://www.w3.org/2000/svg" xmlns:xlink="http://www.w3.org/1999/xlink" x="0px" y="0px"
	 width="595.28px" height="841.89px" viewBox="0 0 595.28 841.89" enable-background="new 0 0 595.28 841.89" xml:space="preserve">
<path fill="none" stroke="#000000" stroke-miterlimit="10" d="M194,64v119c0,0-3.714,38.5-71.5,38.5S51,183,51,183V64h35.75v152.829
	"/>
<rect x="228" y="64" fill="none" stroke="#000000" stroke-miterlimit="10" width="35.75" height="157.5"/>
<polyline fill="none" stroke="#000000" stroke-miterlimit="10" points="541.25,64 485.5,64 449.75,64 449.75,221.5 485.5,221.5 485.5,64 449.75,64 394,64 "/>
<path fill="none" stroke="#000000" stroke-miterlimit="10" d="M278.5,221.5h77c0,0,32.5-3,32.5-32.5L311,64h77h-77c0,0-32.5,3-32.5,32.5l77,125"/>
<path fill="none" stroke="#000000" stroke-miterlimit="10" d="M505.125,267.527c-85,0.736-24-47.736-49-19.736s-76.125,18-76.125,18v1.736c-85,0.736-24-47.736-49-19.736s-76.125,18-76.125,18v1.736c-85,0.736-24-47.736-49-19.736s-76.125,18-76.125,18l1.125,1.736c-85,0.736-24-47.736-49-19.736s-76.125,18-76.125,18"/>
</svg>
